<svg width="209" height="119" viewBox="0 0 209 119" fill="none" xmlns="http://www.w3.org/2000/svg">
<mask id="mask0_4_706" style="mask-type:luminance" maskUnits="userSpaceOnUse" x="35" y="0" width="14" height="7">
<path d="M35 0.333344H48.3333V7.00001H35V0.333344Z" fill="white"/>
</mask>
<g mask="url(#mask0_4_706)">
<mask id="mask1_4_706" style="mask-type:luminance" maskUnits="userSpaceOnUse" x="-24" y="-26" width="168" height="167">
<path d="M-23.3229 45.9375L75.776 -25.2188L143.432 69.0052L44.3333 140.161L-23.3229 45.9375Z" fill="white"/>
</mask>
<g mask="url(#mask1_4_706)">
<mask id="mask2_4_706" style="mask-type:luminance" maskUnits="userSpaceOnUse" x="-24" y="-26" width="168" height="167">
<path d="M-23.3229 45.9375L75.776 -25.2188L143.432 69.0052L44.3333 140.161L-23.3229 45.9375Z" fill="white"/>
</mask>
<g mask="url(#mask2_4_706)">
<path d="M42.6562 3.16146C36.375 5.98958 36 6.16146 35.6146 5.98438C36.0573 4.67708 44.8958 1.36458 48.0937 0.875C47.9687 0.979167 47.9687 0.979166 47.3177 1.22396C46.0312 1.70833 44.75 2.22396 42.6562 3.16146Z" fill="#000FE6"/>
</g>
</g>
</g>
<mask id="mask3_4_706" style="mask-type:luminance" maskUnits="userSpaceOnUse" x="41" y="0" width="12" height="6">
<path d="M41.6667 0.333344H52.3334V5.66668H41.6667V0.333344Z" fill="white"/>
</mask>
<g mask="url(#mask3_4_706)">
<mask id="mask4_4_706" style="mask-type:luminance" maskUnits="userSpaceOnUse" x="-24" y="-26" width="168" height="167">
<path d="M-23.3229 45.9375L75.7761 -25.2188L143.432 69.0052L44.3333 140.161L-23.3229 45.9375Z" fill="white"/>
</mask>
<g mask="url(#mask4_4_706)">
<mask id="mask5_4_706" style="mask-type:luminance" maskUnits="userSpaceOnUse" x="-24" y="-26" width="168" height="167">
<path d="M-23.3229 45.9375L75.7761 -25.2188L143.432 69.0052L44.3333 140.161L-23.3229 45.9375Z" fill="white"/>
</mask>
<g mask="url(#mask5_4_706)">
<path d="M48.9479 2.8646C44.0417 5.83856 41.4427 6.00002 41.7136 5.09377C42.2031 3.4844 48.9531 0.859396 51.7448 0.635437C51.8125 0.635437 51.9063 0.640645 51.9688 0.65627C51.9844 0.682312 52 0.713561 52.0156 0.739604C51.7604 1.16148 49.0677 2.79689 48.9479 2.8646Z" fill="#000FE6"/>
</g>
</g>
</g>
<mask id="mask6_4_706" style="mask-type:luminance" maskUnits="userSpaceOnUse" x="49" y="0" width="10" height="6">
<path d="M49.6667 0.333344H59V5.66668H49.6667V0.333344Z" fill="white"/>
</mask>
<g mask="url(#mask6_4_706)">
<mask id="mask7_4_706" style="mask-type:luminance" maskUnits="userSpaceOnUse" x="-24" y="-26" width="168" height="167">
<path d="M-23.3229 45.9375L75.7761 -25.2188L143.432 69.0052L44.3333 140.161L-23.3229 45.9375Z" fill="white"/>
</mask>
<g mask="url(#mask7_4_706)">
<mask id="mask8_4_706" style="mask-type:luminance" maskUnits="userSpaceOnUse" x="-24" y="-26" width="168" height="167">
<path d="M-23.3229 45.9375L75.7761 -25.2188L143.432 69.0052L44.3333 140.161L-23.3229 45.9375Z" fill="white"/>
</mask>
<g mask="url(#mask8_4_706)">
<path d="M57.2396 2.77605C55.125 5.52084 50.6979 6.00522 50.4844 4.47397C50.25 2.80209 54.6771 0.62501 57.0885 0.520844C58.901 0.583344 57.3073 2.68751 57.2396 2.77605Z" fill="#000FE6"/>
</g>
</g>
</g>
<mask id="mask9_4_706" style="mask-type:luminance" maskUnits="userSpaceOnUse" x="59" y="0" width="8" height="6">
<path d="M59 0.333344H67V5.66668H59V0.333344Z" fill="white"/>
</mask>
<g mask="url(#mask9_4_706)">
<mask id="mask10_4_706" style="mask-type:luminance" maskUnits="userSpaceOnUse" x="-24" y="-26" width="168" height="167">
<path d="M-23.3229 45.9375L75.776 -25.2188L143.432 69.0052L44.3333 140.161L-23.3229 45.9375Z" fill="white"/>
</mask>
<g mask="url(#mask10_4_706)">
<mask id="mask11_4_706" style="mask-type:luminance" maskUnits="userSpaceOnUse" x="-24" y="-26" width="168" height="167">
<path d="M-23.3229 45.9375L75.776 -25.2188L143.432 69.0052L44.3333 140.161L-23.3229 45.9375Z" fill="white"/>
</mask>
<g mask="url(#mask11_4_706)">
<path d="M65.9739 2.89585C66.4062 5.14065 62.9114 6.15106 60.9427 4.8594C58.8698 3.49481 60.375 1.0521 62.3958 0.614604C62.6458 0.56252 62.8542 0.557312 63.0208 0.557312C64.5833 0.645853 65.7708 1.83856 65.9739 2.89585Z" fill="#000FE6"/>
</g>
</g>
</g>
<mask id="mask12_4_706" style="mask-type:luminance" maskUnits="userSpaceOnUse" x="67" y="0" width="10" height="7">
<path d="M67 0.333344H76.3333V7.00001H67V0.333344Z" fill="white"/>
</mask>
<g mask="url(#mask12_4_706)">
<mask id="mask13_4_706" style="mask-type:luminance" maskUnits="userSpaceOnUse" x="-24" y="-26" width="168" height="167">
<path d="M-23.3229 45.9375L75.776 -25.2188L143.432 69.0052L44.3333 140.161L-23.3229 45.9375Z" fill="white"/>
</mask>
<g mask="url(#mask13_4_706)">
<mask id="mask14_4_706" style="mask-type:luminance" maskUnits="userSpaceOnUse" x="-24" y="-26" width="168" height="167">
<path d="M-23.3229 45.9375L75.776 -25.2188L143.432 69.0052L44.3333 140.161L-23.3229 45.9375Z" fill="white"/>
</mask>
<g mask="url(#mask14_4_706)">
<path d="M74.276 3.20834C75.7917 4.6198 75.3125 5.65626 73.9166 5.73959C70.5469 5.94272 67.0833 1.94272 68.1875 0.895844C68.3646 0.729177 68.651 0.723969 68.8594 0.723969C70.2812 0.838551 72.8541 1.88543 74.276 3.20834Z" fill="#000FE6"/>
</g>
</g>
</g>
<mask id="mask15_4_706" style="mask-type:luminance" maskUnits="userSpaceOnUse" x="73" y="0" width="12" height="7">
<path d="M73.6667 0.333344H84.3333V7.00001H73.6667V0.333344Z" fill="white"/>
</mask>
<g mask="url(#mask15_4_706)">
<mask id="mask16_4_706" style="mask-type:luminance" maskUnits="userSpaceOnUse" x="-24" y="-26" width="168" height="167">
<path d="M-23.3229 45.9375L75.776 -25.2188L143.432 69.0052L44.3333 140.161L-23.3229 45.9375Z" fill="white"/>
</mask>
<g mask="url(#mask16_4_706)">
<mask id="mask17_4_706" style="mask-type:luminance" maskUnits="userSpaceOnUse" x="-24" y="-26" width="168" height="167">
<path d="M-23.3229 45.9375L75.776 -25.2188L143.432 69.0052L44.3333 140.161L-23.3229 45.9375Z" fill="white"/>
</mask>
<g mask="url(#mask17_4_706)">
<path d="M81.25 3.6771C83.5625 5.00002 84.1719 6.03127 83.4062 6.2344C82.8854 6.36981 81.4896 6.1094 79.2708 4.9219C77.3958 3.91669 73.7135 1.40106 73.7344 1.05731C73.7969 1.01044 73.8281 1.01044 74.0052 1.01044C75.3437 1.16669 78.7448 2.25523 81.25 3.6771Z" fill="#000FE6"/>
</g>
</g>
</g>
<mask id="mask18_4_706" style="mask-type:luminance" maskUnits="userSpaceOnUse" x="77" y="0" width="14" height="7">
<path d="M77.6667 0.333344H91V7.00001H77.6667V0.333344Z" fill="white"/>
</mask>
<g mask="url(#mask18_4_706)">
<mask id="mask19_4_706" style="mask-type:luminance" maskUnits="userSpaceOnUse" x="-24" y="-26" width="168" height="167">
<path d="M-23.3229 45.9375L75.776 -25.2188L143.432 69.0052L44.3333 140.161L-23.3229 45.9375Z" fill="white"/>
</mask>
<g mask="url(#mask19_4_706)">
<mask id="mask20_4_706" style="mask-type:luminance" maskUnits="userSpaceOnUse" x="-24" y="-26" width="168" height="167">
<path d="M-23.3229 45.9375L75.776 -25.2188L143.432 69.0052L44.3333 140.161L-23.3229 45.9375Z" fill="white"/>
</mask>
<g mask="url(#mask20_4_706)">
<path d="M85.8854 4.26042C87.9896 5.24479 90.1979 6.54688 90.0989 6.92708C89.9844 6.96875 89.7396 7.05729 87.8698 6.21875C87.7812 6.17708 77.8698 1.48438 77.75 1.40104L77.8281 1.39062C78.526 1.52083 82.1719 2.52604 85.8854 4.26042Z" fill="#000FE6"/>
</g>
</g>
</g>
<mask id="mask21_4_706" style="mask-type:luminance" maskUnits="userSpaceOnUse" x="19" y="7" width="12" height="11">
<path d="M19 7H31V17.6667H19V7Z" fill="white"/>
</mask>
<g mask="url(#mask21_4_706)">
<mask id="mask22_4_706" style="mask-type:luminance" maskUnits="userSpaceOnUse" x="-24" y="-26" width="168" height="167">
<path d="M-23.3229 45.9375L75.776 -25.2188L143.432 69.0052L44.3333 140.161L-23.3229 45.9375Z" fill="white"/>
</mask>
<g mask="url(#mask22_4_706)">
<mask id="mask23_4_706" style="mask-type:luminance" maskUnits="userSpaceOnUse" x="-24" y="-26" width="168" height="167">
<path d="M-23.3229 45.9375L75.776 -25.2188L143.432 69.0052L44.3333 140.161L-23.3229 45.9375Z" fill="white"/>
</mask>
<g mask="url(#mask23_4_706)">
<path d="M25.9531 12.7188C22.0885 16.0677 19.9271 17.625 19.526 17.349C19.3646 15.9115 28.0729 9.03646 30.5 8.31771L30.5937 8.3125C30.6146 8.47917 30.6354 8.66667 25.9531 12.7188Z" fill="#000FE6"/>
</g>
</g>
</g>
<mask id="mask24_4_706" style="mask-type:luminance" maskUnits="userSpaceOnUse" x="25" y="7" width="13" height="11">
<path d="M25.6667 7H37.6667V17.6667H25.6667V7Z" fill="white"/>
</mask>
<g mask="url(#mask24_4_706)">
<mask id="mask25_4_706" style="mask-type:luminance" maskUnits="userSpaceOnUse" x="-24" y="-26" width="168" height="167">
<path d="M-23.3229 45.9375L75.776 -25.2188L143.432 69.0052L44.3333 140.161L-23.3229 45.9375Z" fill="white"/>
</mask>
<g mask="url(#mask25_4_706)">
<mask id="mask26_4_706" style="mask-type:luminance" maskUnits="userSpaceOnUse" x="-24" y="-26" width="168" height="167">
<path d="M-23.3229 45.9375L75.776 -25.2188L143.432 69.0052L44.3333 140.161L-23.3229 45.9375Z" fill="white"/>
</mask>
<g mask="url(#mask26_4_706)">
<path d="M34.0052 12.099C30.2031 16.0208 25.8958 17.6927 25.8438 15.875C25.776 13.4063 32.7344 8.14064 35.9115 7.72397C38.1979 7.7448 34.0469 12.0573 34.0052 12.099Z" fill="#000FE6"/>
</g>
</g>
</g>
<mask id="mask27_4_706" style="mask-type:luminance" maskUnits="userSpaceOnUse" x="36" y="7" width="13" height="10">
<path d="M36.3333 7H48.3333V16.3333H36.3333V7Z" fill="white"/>
</mask>
<g mask="url(#mask27_4_706)">
<mask id="mask28_4_706" style="mask-type:luminance" maskUnits="userSpaceOnUse" x="-24" y="-26" width="168" height="167">
<path d="M-23.3229 45.9375L75.776 -25.2188L143.432 69.0052L44.3333 140.161L-23.3229 45.9375Z" fill="white"/>
</mask>
<g mask="url(#mask28_4_706)">
<mask id="mask29_4_706" style="mask-type:luminance" maskUnits="userSpaceOnUse" x="-24" y="-26" width="168" height="167">
<path d="M-23.3229 45.9375L75.776 -25.2188L143.432 69.0052L44.3333 140.161L-23.3229 45.9375Z" fill="white"/>
</mask>
<g mask="url(#mask29_4_706)">
<path d="M46.3802 11.7709C43.7031 16.0313 37.5 17.4427 36.7135 14.7448C35.9479 12.125 41.1094 7.63544 45.2083 7.35419C48.3906 7.44794 47.1354 10.5729 46.3802 11.7709Z" fill="#000FE6"/>
</g>
</g>
</g>
<mask id="mask30_4_706" style="mask-type:luminance" maskUnits="userSpaceOnUse" x="49" y="7" width="13" height="10">
<path d="M49.6667 7H61.6667V16.3333H49.6667V7Z" fill="white"/>
</mask>
<g mask="url(#mask30_4_706)">
<mask id="mask31_4_706" style="mask-type:luminance" maskUnits="userSpaceOnUse" x="-24" y="-26" width="168" height="167">
<path d="M-23.3229 45.9375L75.7761 -25.2188L143.432 69.0052L44.3333 140.161L-23.3229 45.9375Z" fill="white"/>
</mask>
<g mask="url(#mask31_4_706)">
<mask id="mask32_4_706" style="mask-type:luminance" maskUnits="userSpaceOnUse" x="-24" y="-26" width="168" height="167">
<path d="M-23.3229 45.9375L75.7761 -25.2188L143.432 69.0052L44.3333 140.161L-23.3229 45.9375Z" fill="white"/>
</mask>
<g mask="url(#mask32_4_706)">
<path d="M60.5781 11.8021C59.6771 16.3386 52.875 17.3386 51.0417 14.2084C49.4584 11.5104 52.8906 7.4271 56.8646 7.27606C60.0156 7.44273 60.9323 10.0209 60.5781 11.8021Z" fill="#000FE6"/>
</g>
</g>
</g>
<mask id="mask33_4_706" style="mask-type:luminance" maskUnits="userSpaceOnUse" x="64" y="7" width="11" height="10">
<path d="M64.3333 7H75V16.3333H64.3333V7Z" fill="white"/>
</mask>
<g mask="url(#mask33_4_706)">
<mask id="mask34_4_706" style="mask-type:luminance" maskUnits="userSpaceOnUse" x="-24" y="-26" width="168" height="167">
<path d="M-23.3229 45.9375L75.776 -25.2188L143.432 69.0052L44.3333 140.161L-23.3229 45.9375Z" fill="white"/>
</mask>
<g mask="url(#mask34_4_706)">
<mask id="mask35_4_706" style="mask-type:luminance" maskUnits="userSpaceOnUse" x="-24" y="-26" width="168" height="167">
<path d="M-23.3229 45.9375L75.776 -25.2188L143.432 69.0052L44.3333 140.161L-23.3229 45.9375Z" fill="white"/>
</mask>
<g mask="url(#mask35_4_706)">
<path d="M74.776 12.1615C75.6667 15.8906 70.9896 17.4011 67.6406 15.3542C63.9479 13.1042 64.5417 8.48959 67.7552 7.62501C68.2031 7.50522 68.6094 7.4948 68.9375 7.48959C72.2135 7.73438 74.3594 10.4219 74.776 12.1615Z" fill="#000FE6"/>
</g>
</g>
</g>
<mask id="mask36_4_706" style="mask-type:luminance" maskUnits="userSpaceOnUse" x="77" y="7" width="12" height="11">
<path d="M77.6667 7H88.3333V17.6667H77.6667V7Z" fill="white"/>
</mask>
<g mask="url(#mask36_4_706)">
<mask id="mask37_4_706" style="mask-type:luminance" maskUnits="userSpaceOnUse" x="-24" y="-26" width="168" height="167">
<path d="M-23.3229 45.9375L75.776 -25.2188L143.432 69.0052L44.3333 140.161L-23.3229 45.9375Z" fill="white"/>
</mask>
<g mask="url(#mask37_4_706)">
<mask id="mask38_4_706" style="mask-type:luminance" maskUnits="userSpaceOnUse" x="-24" y="-26" width="168" height="167">
<path d="M-23.3229 45.9375L75.776 -25.2188L143.432 69.0052L44.3333 140.161L-23.3229 45.9375Z" fill="white"/>
</mask>
<g mask="url(#mask38_4_706)">
<path d="M87.5208 12.8073C89.276 15.5729 87.8906 17.5312 84.7292 16.7552C79.9583 15.5885 76.5885 9.53645 79.0156 8.17707C79.4167 7.95312 79.8021 7.95832 80.2135 7.95832C83.0156 8.24999 86.1875 10.7031 87.5208 12.8073Z" fill="#000FE6"/>
</g>
</g>
</g>
<mask id="mask39_4_706" style="mask-type:luminance" maskUnits="userSpaceOnUse" x="88" y="8" width="13" height="11">
<path d="M88.3333 8.33334H100.333V19H88.3333V8.33334Z" fill="white"/>
</mask>
<g mask="url(#mask39_4_706)">
<mask id="mask40_4_706" style="mask-type:luminance" maskUnits="userSpaceOnUse" x="-24" y="-26" width="168" height="167">
<path d="M-23.3229 45.9375L75.776 -25.2188L143.432 69.0052L44.3333 140.161L-23.3229 45.9375Z" fill="white"/>
</mask>
<g mask="url(#mask40_4_706)">
<mask id="mask41_4_706" style="mask-type:luminance" maskUnits="userSpaceOnUse" x="-24" y="-26" width="168" height="167">
<path d="M-23.3229 45.9375L75.776 -25.2188L143.432 69.0052L44.3333 140.161L-23.3229 45.9375Z" fill="white"/>
</mask>
<g mask="url(#mask41_4_706)">
<path d="M97.3593 13.6979C99.6146 16.1094 99.9218 18 98.0312 17.8177C94.1979 17.4583 87.3958 9.73958 88.8541 8.73438C89.0104 8.625 89.2604 8.63542 89.4635 8.64063C91.6927 8.99479 95.3437 11.5417 97.3593 13.6979Z" fill="#000FE6"/>
</g>
</g>
</g>
<mask id="mask42_4_706" style="mask-type:luminance" maskUnits="userSpaceOnUse" x="95" y="8" width="12" height="11">
<path d="M95 8.33334H107V19H95V8.33334Z" fill="white"/>
</mask>
<g mask="url(#mask42_4_706)">
<mask id="mask43_4_706" style="mask-type:luminance" maskUnits="userSpaceOnUse" x="-24" y="-26" width="168" height="167">
<path d="M-23.3229 45.9375L75.776 -25.2188L143.432 69.0052L44.3333 140.161L-23.3229 45.9375Z" fill="white"/>
</mask>
<g mask="url(#mask43_4_706)">
<mask id="mask44_4_706" style="mask-type:luminance" maskUnits="userSpaceOnUse" x="-24" y="-26" width="168" height="167">
<path d="M-23.3229 45.9375L75.776 -25.2188L143.432 69.0052L44.3333 140.161L-23.3229 45.9375Z" fill="white"/>
</mask>
<g mask="url(#mask44_4_706)">
<path d="M102.333 14.6667C104.104 16.2917 105.969 18.2969 105.865 18.8646C104.74 19.5313 95.0937 9.61979 95.0677 9.47917C95.1094 9.46875 95.1614 9.45833 95.2031 9.45312C96.151 9.76563 99.3229 11.9063 102.333 14.6667Z" fill="#000FE6"/>
</g>
</g>
</g>
<mask id="mask45_4_706" style="mask-type:luminance" maskUnits="userSpaceOnUse" x="7" y="19" width="10" height="14">
<path d="M7 19H16.3333V32.3333H7V19Z" fill="white"/>
</mask>
<g mask="url(#mask45_4_706)">
<mask id="mask46_4_706" style="mask-type:luminance" maskUnits="userSpaceOnUse" x="-24" y="-26" width="168" height="167">
<path d="M-23.3229 45.9375L75.776 -25.2188L143.432 69.0052L44.3333 140.161L-23.3229 45.9375Z" fill="white"/>
</mask>
<g mask="url(#mask46_4_706)">
<mask id="mask47_4_706" style="mask-type:luminance" maskUnits="userSpaceOnUse" x="-24" y="-26" width="168" height="167">
<path d="M-23.3229 45.9375L75.776 -25.2188L143.432 69.0052L44.3333 140.161L-23.3229 45.9375Z" fill="white"/>
</mask>
<g mask="url(#mask47_4_706)">
<path d="M12.5 25.9375C8.82808 31.4375 8.34371 31.8281 8.16142 31.974L8.10413 31.9219C8.15621 31.75 8.20829 31.599 8.52079 31.0208L8.53642 30.9948C11.7239 25.6146 11.7239 25.6146 13.6354 23.1094L15.6614 20.599C16.0625 20.125 16.1666 20.0365 16.2864 19.9375L16.3281 19.9792C16.2395 20.1927 16.0937 20.5521 12.5 25.9375Z" fill="#000FE6"/>
</g>
</g>
</g>
<mask id="mask48_4_706" style="mask-type:luminance" maskUnits="userSpaceOnUse" x="12" y="19" width="11" height="12">
<path d="M12.3333 19H23V31H12.3333V19Z" fill="white"/>
</mask>
<g mask="url(#mask48_4_706)">
<mask id="mask49_4_706" style="mask-type:luminance" maskUnits="userSpaceOnUse" x="-24" y="-26" width="168" height="167">
<path d="M-23.3229 45.9375L75.776 -25.2188L143.432 69.0052L44.3333 140.161L-23.3229 45.9375Z" fill="white"/>
</mask>
<g mask="url(#mask49_4_706)">
<mask id="mask50_4_706" style="mask-type:luminance" maskUnits="userSpaceOnUse" x="-24" y="-26" width="168" height="167">
<path d="M-23.3229 45.9375L75.776 -25.2188L143.432 69.0052L44.3333 140.161L-23.3229 45.9375Z" fill="white"/>
</mask>
<g mask="url(#mask50_4_706)">
<path d="M19.7656 25C17.0208 29.4271 13.2187 32.2344 12.6354 30.2709C11.8594 27.6459 17.7552 19.6511 20.9427 19.0104C22.7969 19.0052 21.2083 22.6771 19.7656 25Z" fill="#000FE6"/>
</g>
</g>
</g>
<mask id="mask51_4_706" style="mask-type:luminance" maskUnits="userSpaceOnUse" x="21" y="17" width="14" height="14">
<path d="M21.6667 17.6667H35V31H21.6667V17.6667Z" fill="white"/>
</mask>
<g mask="url(#mask51_4_706)">
<mask id="mask52_4_706" style="mask-type:luminance" maskUnits="userSpaceOnUse" x="-24" y="-26" width="168" height="167">
<path d="M-23.3229 45.9375L75.776 -25.2188L143.432 69.0052L44.3333 140.161L-23.3229 45.9375Z" fill="white"/>
</mask>
<g mask="url(#mask52_4_706)">
<mask id="mask53_4_706" style="mask-type:luminance" maskUnits="userSpaceOnUse" x="-24" y="-26" width="168" height="167">
<path d="M-23.3229 45.9375L75.776 -25.2188L143.432 69.0052L44.3333 140.161L-23.3229 45.9375Z" fill="white"/>
</mask>
<g mask="url(#mask53_4_706)">
<path d="M33.0417 24.3698C30.5729 29.4063 24 32 22.849 28.3906C21.8125 25.1458 26.4479 18.7969 31.1667 18.3333C34.4688 18.4011 34.25 21.9063 33.0417 24.3698Z" fill="#000FE6"/>
</g>
</g>
</g>
<mask id="mask54_4_706" style="mask-type:luminance" maskUnits="userSpaceOnUse" x="37" y="17" width="14" height="14">
<path d="M37.6667 17.6667H51V31H37.6667V17.6667Z" fill="white"/>
</mask>
<g mask="url(#mask54_4_706)">
<mask id="mask55_4_706" style="mask-type:luminance" maskUnits="userSpaceOnUse" x="-24" y="-26" width="168" height="167">
<path d="M-23.3229 45.9375L75.7761 -25.2188L143.432 69.0052L44.3333 140.161L-23.3229 45.9375Z" fill="white"/>
</mask>
<g mask="url(#mask55_4_706)">
<mask id="mask56_4_706" style="mask-type:luminance" maskUnits="userSpaceOnUse" x="-24" y="-26" width="168" height="167">
<path d="M-23.3229 45.9375L75.7761 -25.2188L143.432 69.0052L44.3333 140.161L-23.3229 45.9375Z" fill="white"/>
</mask>
<g mask="url(#mask56_4_706)">
<path d="M50.5208 24.1771C49.0312 29.4844 41.0937 31.7031 38.7187 27.474C36.8177 24.0834 40.526 18.3125 46.1302 18.0104C50.5312 18.1979 51.1562 21.8959 50.5208 24.1771Z" fill="#000FE6"/>
</g>
</g>
</g>
<mask id="mask57_4_706" style="mask-type:luminance" maskUnits="userSpaceOnUse" x="56" y="17" width="14" height="14">
<path d="M56.3333 17.6667H69.6667V31H56.3333V17.6667Z" fill="white"/>
</mask>
<g mask="url(#mask57_4_706)">
<mask id="mask58_4_706" style="mask-type:luminance" maskUnits="userSpaceOnUse" x="-24" y="-26" width="168" height="167">
<path d="M-23.3229 45.9375L75.776 -25.2188L143.432 69.0052L44.3333 140.161L-23.3229 45.9375Z" fill="white"/>
</mask>
<g mask="url(#mask58_4_706)">
<mask id="mask59_4_706" style="mask-type:luminance" maskUnits="userSpaceOnUse" x="-24" y="-26" width="168" height="167">
<path d="M-23.3229 45.9375L75.776 -25.2188L143.432 69.0052L44.3333 140.161L-23.3229 45.9375Z" fill="white"/>
</mask>
<g mask="url(#mask59_4_706)">
<path d="M68.9479 24.4375C68.724 29.5677 61.7031 31.7761 57.8958 27.9115C54.5469 24.5104 56.8021 18.2865 62.7552 18.1146C67.2031 18.4011 69.0521 21.9844 68.9479 24.4375Z" fill="#000FE6"/>
</g>
</g>
</g>
<mask id="mask60_4_706" style="mask-type:luminance" maskUnits="userSpaceOnUse" x="73" y="17" width="14" height="14">
<path d="M73.6667 17.6667H87V31H73.6667V17.6667Z" fill="white"/>
</mask>
<g mask="url(#mask60_4_706)">
<mask id="mask61_4_706" style="mask-type:luminance" maskUnits="userSpaceOnUse" x="-24" y="-26" width="168" height="167">
<path d="M-23.3229 45.9375L75.776 -25.2188L143.432 69.0052L44.3333 140.161L-23.3229 45.9375Z" fill="white"/>
</mask>
<g mask="url(#mask61_4_706)">
<mask id="mask62_4_706" style="mask-type:luminance" maskUnits="userSpaceOnUse" x="-24" y="-26" width="168" height="167">
<path d="M-23.3229 45.9375L75.776 -25.2188L143.432 69.0052L44.3333 140.161L-23.3229 45.9375Z" fill="white"/>
</mask>
<g mask="url(#mask62_4_706)">
<path d="M86.4479 25.0938C87.3229 29.6719 82.4271 32.0313 78.0052 29.1667C72.9739 25.9063 73.7291 19.3906 78.0573 18.6511C78.3698 18.599 78.7968 18.5938 79.1146 18.5886C83.3906 18.974 85.9739 22.625 86.4479 25.0938Z" fill="#000FE6"/>
</g>
</g>
</g>
<mask id="mask63_4_706" style="mask-type:luminance" maskUnits="userSpaceOnUse" x="89" y="19" width="13" height="14">
<path d="M89.6667 19H101.667V32.3333H89.6667V19Z" fill="white"/>
</mask>
<g mask="url(#mask63_4_706)">
<mask id="mask64_4_706" style="mask-type:luminance" maskUnits="userSpaceOnUse" x="-24" y="-26" width="168" height="167">
<path d="M-23.3229 45.9375L75.776 -25.2188L143.432 69.0052L44.3333 140.161L-23.3229 45.9375Z" fill="white"/>
</mask>
<g mask="url(#mask64_4_706)">
<mask id="mask65_4_706" style="mask-type:luminance" maskUnits="userSpaceOnUse" x="-24" y="-26" width="168" height="167">
<path d="M-23.3229 45.9375L75.776 -25.2188L143.432 69.0052L44.3333 140.161L-23.3229 45.9375Z" fill="white"/>
</mask>
<g mask="url(#mask65_4_706)">
<path d="M101.156 26.0833C102.682 29.9271 100.547 32.375 96.9323 30.9271C91.4114 28.724 88.9635 20.7917 92.3177 19.5365C92.7396 19.3802 93.1771 19.3854 93.526 19.3906C97.1094 19.8646 100.198 23.6615 101.156 26.0833Z" fill="#000FE6"/>
</g>
</g>
</g>
<mask id="mask66_4_706" style="mask-type:luminance" maskUnits="userSpaceOnUse" x="103" y="20" width="10" height="14">
<path d="M103 20.3333H112.333V33.6667H103V20.3333Z" fill="white"/>
</mask>
<g mask="url(#mask66_4_706)">
<mask id="mask67_4_706" style="mask-type:luminance" maskUnits="userSpaceOnUse" x="-24" y="-26" width="168" height="167">
<path d="M-23.3229 45.9375L75.776 -25.2188L143.432 69.0052L44.3333 140.161L-23.3229 45.9375Z" fill="white"/>
</mask>
<g mask="url(#mask67_4_706)">
<mask id="mask68_4_706" style="mask-type:luminance" maskUnits="userSpaceOnUse" x="-24" y="-26" width="168" height="167">
<path d="M-23.3229 45.9375L75.776 -25.2188L143.432 69.0052L44.3333 140.161L-23.3229 45.9375Z" fill="white"/>
</mask>
<g mask="url(#mask68_4_706)">
<path d="M110.937 27.3073C112.812 30.7292 112.734 33.1042 110.766 32.4948C107.104 31.3698 101.26 21.3854 103.74 20.4896C103.88 20.4375 104.083 20.4479 104.229 20.4531C106.552 20.9896 109.547 24.7865 110.937 27.3073Z" fill="#000FE6"/>
</g>
</g>
</g>
<mask id="mask69_4_706" style="mask-type:luminance" maskUnits="userSpaceOnUse" x="108" y="20" width="10" height="15">
<path d="M108.333 20.3333H117.667V35H108.333V20.3333Z" fill="white"/>
</mask>
<g mask="url(#mask69_4_706)">
<mask id="mask70_4_706" style="mask-type:luminance" maskUnits="userSpaceOnUse" x="-24" y="-26" width="168" height="167">
<path d="M-23.3229 45.9375L75.776 -25.2188L143.432 69.0052L44.3333 140.161L-23.3229 45.9375Z" fill="white"/>
</mask>
<g mask="url(#mask70_4_706)">
<mask id="mask71_4_706" style="mask-type:luminance" maskUnits="userSpaceOnUse" x="-24" y="-26" width="168" height="167">
<path d="M-23.3229 45.9375L75.776 -25.2188L143.432 69.0052L44.3333 140.161L-23.3229 45.9375Z" fill="white"/>
</mask>
<g mask="url(#mask71_4_706)">
<path d="M116.557 33.2969C116.714 33.6302 116.745 33.7396 116.771 33.8438L116.719 33.8906C115.875 33.1354 109.328 22.5469 108.979 21.6146L109.016 21.5781C109.146 21.6875 109.198 21.7448 109.521 22.1458L111.536 24.8229C114.948 30.0573 114.948 30.0573 116.354 32.8802L116.448 33.0677C116.479 33.1354 116.526 33.2292 116.557 33.2969Z" fill="#000FE6"/>
</g>
</g>
</g>
<mask id="mask72_4_706" style="mask-type:luminance" maskUnits="userSpaceOnUse" x="3" y="32" width="8" height="17">
<path d="M3 32.3333H11V48.3333H3V32.3333Z" fill="white"/>
</mask>
<g mask="url(#mask72_4_706)">
<mask id="mask73_4_706" style="mask-type:luminance" maskUnits="userSpaceOnUse" x="-24" y="-26" width="168" height="167">
<path d="M-23.3229 45.9375L75.776 -25.2188L143.432 69.0052L44.3333 140.161L-23.3229 45.9375Z" fill="white"/>
</mask>
<g mask="url(#mask73_4_706)">
<mask id="mask74_4_706" style="mask-type:luminance" maskUnits="userSpaceOnUse" x="-24" y="-26" width="168" height="167">
<path d="M-23.3229 45.9375L75.776 -25.2188L143.432 69.0052L44.3333 140.161L-23.3229 45.9375Z" fill="white"/>
</mask>
<g mask="url(#mask74_4_706)">
<path d="M8.7656 40.2969C7.15102 45.1563 4.81248 48.4271 4.13019 46.7761C3.17185 44.4531 6.61456 34.0469 9.21873 33.125C10.6406 33.0886 9.69789 37.5 8.7656 40.2969Z" fill="#000FE6"/>
</g>
</g>
</g>
<mask id="mask75_4_706" style="mask-type:luminance" maskUnits="userSpaceOnUse" x="11" y="31" width="11" height="16">
<path d="M11 31H21.6667V47H11V31Z" fill="white"/>
</mask>
<g mask="url(#mask75_4_706)">
<mask id="mask76_4_706" style="mask-type:luminance" maskUnits="userSpaceOnUse" x="-24" y="-26" width="168" height="167">
<path d="M-23.3229 45.9375L75.776 -25.2188L143.432 69.0052L44.3333 140.161L-23.3229 45.9375Z" fill="white"/>
</mask>
<g mask="url(#mask76_4_706)">
<mask id="mask77_4_706" style="mask-type:luminance" maskUnits="userSpaceOnUse" x="-24" y="-26" width="168" height="167">
<path d="M-23.3229 45.9375L75.776 -25.2188L143.432 69.0052L44.3333 140.161L-23.3229 45.9375Z" fill="white"/>
</mask>
<g mask="url(#mask77_4_706)">
<path d="M20.4687 39.3906C18.7135 45.1094 13.6927 48.2188 11.9479 44.6719C10.151 41.0209 13.599 32.8021 18.1146 32.1511C21.2604 32.1927 21.3854 36.4115 20.4687 39.3906Z" fill="#000FE6"/>
</g>
</g>
</g>
<mask id="mask78_4_706" style="mask-type:luminance" maskUnits="userSpaceOnUse" x="24" y="31" width="15" height="15">
<path d="M24.3333 31H39V45.6667H24.3333V31Z" fill="white"/>
</mask>
<g mask="url(#mask78_4_706)">
<mask id="mask79_4_706" style="mask-type:luminance" maskUnits="userSpaceOnUse" x="-24" y="-26" width="168" height="167">
<path d="M-23.3229 45.9375L75.776 -25.2188L143.432 69.0052L44.3333 140.161L-23.3229 45.9375Z" fill="white"/>
</mask>
<g mask="url(#mask79_4_706)">
<mask id="mask80_4_706" style="mask-type:luminance" maskUnits="userSpaceOnUse" x="-24" y="-26" width="168" height="167">
<path d="M-23.3229 45.9375L75.776 -25.2188L143.432 69.0052L44.3333 140.161L-23.3229 45.9375Z" fill="white"/>
</mask>
<g mask="url(#mask80_4_706)">
<path d="M38.4583 38.9115C36.9531 45.2031 28.9375 47.849 26.2083 42.9584C23.9062 38.8281 27.3645 31.9896 33.401 31.5417C38.3333 31.7031 39.1198 36.1459 38.4583 38.9115Z" fill="#000FE6"/>
</g>
</g>
</g>
<mask id="mask81_4_706" style="mask-type:luminance" maskUnits="userSpaceOnUse" x="44" y="31" width="17" height="15">
<path d="M44.3333 31H60.3333V45.6667H44.3333V31Z" fill="white"/>
</mask>
<g mask="url(#mask81_4_706)">
<mask id="mask82_4_706" style="mask-type:luminance" maskUnits="userSpaceOnUse" x="-24" y="-26" width="168" height="167">
<path d="M-23.3229 45.9375L75.776 -25.2188L143.432 69.0052L44.3333 140.161L-23.3229 45.9375Z" fill="white"/>
</mask>
<g mask="url(#mask82_4_706)">
<mask id="mask83_4_706" style="mask-type:luminance" maskUnits="userSpaceOnUse" x="-24" y="-26" width="168" height="167">
<path d="M-23.3229 45.9375L75.776 -25.2188L143.432 69.0052L44.3333 140.161L-23.3229 45.9375Z" fill="white"/>
</mask>
<g mask="url(#mask83_4_706)">
<path d="M59.0937 38.9531C58.2135 45.3177 49.8177 47.7188 46.0781 42.6771C43.0312 38.5677 46.0364 31.6927 52.5677 31.4167C57.75 31.6979 59.5052 35.9948 59.0937 38.9531Z" fill="#000FE6"/>
</g>
</g>
</g>
<mask id="mask84_4_706" style="mask-type:luminance" maskUnits="userSpaceOnUse" x="85" y="32" width="14" height="15">
<path d="M85.6667 32.3333H99V47H85.6667V32.3333Z" fill="white"/>
</mask>
<g mask="url(#mask84_4_706)">
<mask id="mask85_4_706" style="mask-type:luminance" maskUnits="userSpaceOnUse" x="-24" y="-26" width="168" height="167">
<path d="M-23.3229 45.9375L75.776 -25.2188L143.432 69.0052L44.3333 140.161L-23.3229 45.9375Z" fill="white"/>
</mask>
<g mask="url(#mask85_4_706)">
<mask id="mask86_4_706" style="mask-type:luminance" maskUnits="userSpaceOnUse" x="-24" y="-26" width="168" height="167">
<path d="M-23.3229 45.9375L75.776 -25.2188L143.432 69.0052L44.3333 140.161L-23.3229 45.9375Z" fill="white"/>
</mask>
<g mask="url(#mask86_4_706)">
<path d="M98.2552 40.4219C98.7448 46.1406 93.1198 48.6354 88.7083 44.6614C84.026 40.4427 85.0521 32.8489 90.3489 32.5312C90.5312 32.5208 90.7708 32.5312 90.9531 32.5312C95.5729 33.0469 98.0052 37.4531 98.2552 40.4219Z" fill="#000FE6"/>
</g>
</g>
</g>
<mask id="mask87_4_706" style="mask-type:luminance" maskUnits="userSpaceOnUse" x="0" y="49" width="3" height="18">
<path d="M0.333313 49.6667H2.99998V67H0.333313V49.6667Z" fill="white"/>
</mask>
<g mask="url(#mask87_4_706)">
<mask id="mask88_4_706" style="mask-type:luminance" maskUnits="userSpaceOnUse" x="-24" y="-26" width="168" height="167">
<path d="M-23.3229 45.9375L75.776 -25.2188L143.432 69.0052L44.3333 140.161L-23.3229 45.9375Z" fill="white"/>
</mask>
<g mask="url(#mask88_4_706)">
<mask id="mask89_4_706" style="mask-type:luminance" maskUnits="userSpaceOnUse" x="-24" y="-26" width="168" height="167">
<path d="M-23.3229 45.9375L75.776 -25.2188L143.432 69.0052L44.3333 140.161L-23.3229 45.9375Z" fill="white"/>
</mask>
<g mask="url(#mask89_4_706)">
<path d="M2.79165 58.8021C2.71873 61.5156 2.43748 66.125 1.84373 66.1823C1.65102 66 1.43227 65.4427 1.28644 62.6406L1.23956 58.8281L1.49477 54.1979C1.78644 51.1667 2.0729 50.8646 2.19269 50.7344L2.27081 50.724C2.83852 51.2604 2.86456 56.0521 2.79165 58.8021Z" fill="#000FE6"/>
</g>
</g>
</g>
<mask id="mask90_4_706" style="mask-type:luminance" maskUnits="userSpaceOnUse" x="4" y="48" width="9" height="18">
<path d="M4.33331 48.3333H12.3333V65.6667H4.33331V48.3333Z" fill="white"/>
</mask>
<g mask="url(#mask90_4_706)">
<mask id="mask91_4_706" style="mask-type:luminance" maskUnits="userSpaceOnUse" x="-24" y="-26" width="168" height="167">
<path d="M-23.3229 45.9375L75.776 -25.2188L143.432 69.0052L44.3333 140.161L-23.3229 45.9375Z" fill="white"/>
</mask>
<g mask="url(#mask91_4_706)">
<mask id="mask92_4_706" style="mask-type:luminance" maskUnits="userSpaceOnUse" x="-24" y="-26" width="168" height="167">
<path d="M-23.3229 45.9375L75.776 -25.2188L143.432 69.0052L44.3333 140.161L-23.3229 45.9375Z" fill="white"/>
</mask>
<g mask="url(#mask92_4_706)">
<path d="M11.3906 57.6927C11.0573 63.1615 8.42185 66.5885 6.35935 64.2292C3.60414 61.0833 4.33331 50.401 8.20831 49.5312C10.7448 49.5469 11.5937 54.3125 11.3906 57.6927Z" fill="#000FE6"/>
</g>
</g>
</g>
<mask id="mask93_4_706" style="mask-type:luminance" maskUnits="userSpaceOnUse" x="15" y="48" width="14" height="17">
<path d="M15 48.3333H28.3333V64.3333H15V48.3333Z" fill="white"/>
</mask>
<g mask="url(#mask93_4_706)">
<mask id="mask94_4_706" style="mask-type:luminance" maskUnits="userSpaceOnUse" x="-24" y="-26" width="168" height="167">
<path d="M-23.3229 45.9375L75.776 -25.2188L143.432 69.0052L44.3333 140.161L-23.3229 45.9375Z" fill="white"/>
</mask>
<g mask="url(#mask94_4_706)">
<mask id="mask95_4_706" style="mask-type:luminance" maskUnits="userSpaceOnUse" x="-24" y="-26" width="168" height="167">
<path d="M-23.3229 45.9375L75.776 -25.2188L143.432 69.0052L44.3333 140.161L-23.3229 45.9375Z" fill="white"/>
</mask>
<g mask="url(#mask95_4_706)">
<path d="M27.0833 56.9479C26.4739 63.3385 20.4479 66.4271 17.1562 62.026C13.9166 57.6979 15.8437 49.2552 21.4166 48.6562C25.8541 48.776 27.401 53.5781 27.0833 56.9479Z" fill="#000FE6"/>
</g>
</g>
</g>
<mask id="mask96_4_706" style="mask-type:luminance" maskUnits="userSpaceOnUse" x="32" y="47" width="17" height="18">
<path d="M32.3333 47H48.3333V64.3333H32.3333V47Z" fill="white"/>
</mask>
<g mask="url(#mask96_4_706)">
<mask id="mask97_4_706" style="mask-type:luminance" maskUnits="userSpaceOnUse" x="-24" y="-26" width="168" height="167">
<path d="M-23.3229 45.9375L75.776 -25.2188L143.432 69.0052L44.3333 140.161L-23.3229 45.9375Z" fill="white"/>
</mask>
<g mask="url(#mask97_4_706)">
<mask id="mask98_4_706" style="mask-type:luminance" maskUnits="userSpaceOnUse" x="-24" y="-26" width="168" height="167">
<path d="M-23.3229 45.9375L75.776 -25.2188L143.432 69.0052L44.3333 140.161L-23.3229 45.9375Z" fill="white"/>
</mask>
<g mask="url(#mask98_4_706)">
<path d="M47.7448 56.724C46.9948 63.4948 38.9687 66.1354 34.927 60.9427C31.3802 56.3906 33.9375 48.6511 40.7604 48.2448C46.5052 48.5156 48.0937 53.5886 47.7448 56.724Z" fill="#000FE6"/>
</g>
</g>
</g>
<mask id="mask99_4_706" style="mask-type:luminance" maskUnits="userSpaceOnUse" x="53" y="48" width="17" height="17">
<path d="M53.6667 48.3333H69.6667V64.3333H53.6667V48.3333Z" fill="white"/>
</mask>
<g mask="url(#mask99_4_706)">
<mask id="mask100_4_706" style="mask-type:luminance" maskUnits="userSpaceOnUse" x="-24" y="-26" width="168" height="167">
<path d="M-23.3229 45.9375L75.776 -25.2188L143.432 69.0052L44.3333 140.161L-23.3229 45.9375Z" fill="white"/>
</mask>
<g mask="url(#mask100_4_706)">
<mask id="mask101_4_706" style="mask-type:luminance" maskUnits="userSpaceOnUse" x="-24" y="-26" width="168" height="167">
<path d="M-23.3229 45.9375L75.776 -25.2188L143.432 69.0052L44.3333 140.161L-23.3229 45.9375Z" fill="white"/>
</mask>
<g mask="url(#mask101_4_706)">
<path d="M69.5364 57.026C68.7448 63.8333 60.4167 66.276 56.2344 60.9323C52.5937 56.2865 55.2344 48.6094 62.2396 48.375C68.2344 48.7865 69.8958 53.901 69.5364 57.026Z" fill="#000FE6"/>
</g>
</g>
</g>
<mask id="mask102_4_706" style="mask-type:luminance" maskUnits="userSpaceOnUse" x="3" y="69" width="7" height="16">
<path d="M3 69.6667H9.66667V84.3334H3V69.6667Z" fill="white"/>
</mask>
<g mask="url(#mask102_4_706)">
<mask id="mask103_4_706" style="mask-type:luminance" maskUnits="userSpaceOnUse" x="-24" y="-26" width="168" height="167">
<path d="M-23.3229 45.9375L75.776 -25.2188L143.432 69.0052L44.3333 140.161L-23.3229 45.9375Z" fill="white"/>
</mask>
<g mask="url(#mask103_4_706)">
<mask id="mask104_4_706" style="mask-type:luminance" maskUnits="userSpaceOnUse" x="-24" y="-26" width="168" height="167">
<path d="M-23.3229 45.9375L75.776 -25.2188L143.432 69.0052L44.3333 140.161L-23.3229 45.9375Z" fill="white"/>
</mask>
<g mask="url(#mask104_4_706)">
<path d="M8.8958 77.3802C9.8958 81.3021 9.84892 84.901 8.16663 83.7917C5.60413 82.099 2.0208 70.7604 4.57809 69.7239C6.19788 69.7031 8.07809 74.1875 8.8958 77.3802Z" fill="#000FE6"/>
</g>
</g>
</g>
<mask id="mask105_4_706" style="mask-type:luminance" maskUnits="userSpaceOnUse" x="11" y="68" width="11" height="17">
<path d="M11 68.3333H21.6667V84.3333H11V68.3333Z" fill="white"/>
</mask>
<g mask="url(#mask105_4_706)">
<mask id="mask106_4_706" style="mask-type:luminance" maskUnits="userSpaceOnUse" x="-24" y="-26" width="168" height="167">
<path d="M-23.3229 45.9375L75.776 -25.2188L143.432 69.0052L44.3333 140.161L-23.3229 45.9375Z" fill="white"/>
</mask>
<g mask="url(#mask106_4_706)">
<mask id="mask107_4_706" style="mask-type:luminance" maskUnits="userSpaceOnUse" x="-24" y="-26" width="168" height="167">
<path d="M-23.3229 45.9375L75.776 -25.2188L143.432 69.0052L44.3333 140.161L-23.3229 45.9375Z" fill="white"/>
</mask>
<g mask="url(#mask107_4_706)">
<path d="M20.4271 76.4896C21.1927 81.4479 18.6302 84.4531 15.4479 82.3334C10.8437 79.2813 9.61456 69.7604 13.6927 68.75C13.8229 68.7188 14.0052 68.7031 14.1406 68.6823C17.6562 68.7448 19.9323 73.2865 20.4271 76.4896Z" fill="#000FE6"/>
</g>
</g>
</g>
<mask id="mask108_4_706" style="mask-type:luminance" maskUnits="userSpaceOnUse" x="24" y="67" width="15" height="16">
<path d="M24.3333 67H39V83H24.3333V67Z" fill="white"/>
</mask>
<g mask="url(#mask108_4_706)">
<mask id="mask109_4_706" style="mask-type:luminance" maskUnits="userSpaceOnUse" x="-24" y="-26" width="168" height="167">
<path d="M-23.3229 45.9375L75.776 -25.2188L143.432 69.0052L44.3333 140.161L-23.3229 45.9375Z" fill="white"/>
</mask>
<g mask="url(#mask109_4_706)">
<mask id="mask110_4_706" style="mask-type:luminance" maskUnits="userSpaceOnUse" x="-24" y="-26" width="168" height="167">
<path d="M-23.3229 45.9375L75.776 -25.2188L143.432 69.0052L44.3333 140.161L-23.3229 45.9375Z" fill="white"/>
</mask>
<g mask="url(#mask110_4_706)">
<path d="M38.1562 76.0156C38.3073 81.8906 32.4479 84.4948 28.0416 80.5052C23.9166 76.7709 23.8177 68.5573 30.5781 68.0261C35.6666 68.2084 38.0729 72.8073 38.1562 76.0156Z" fill="#000FE6"/>
</g>
</g>
</g>
<mask id="mask111_4_706" style="mask-type:luminance" maskUnits="userSpaceOnUse" x="44" y="67" width="15" height="16">
<path d="M44.3333 67H59V83H44.3333V67Z" fill="white"/>
</mask>
<g mask="url(#mask111_4_706)">
<mask id="mask112_4_706" style="mask-type:luminance" maskUnits="userSpaceOnUse" x="-24" y="-26" width="168" height="167">
<path d="M-23.3229 45.9375L75.776 -25.2188L143.432 69.0052L44.3333 140.161L-23.3229 45.9375Z" fill="white"/>
</mask>
<g mask="url(#mask112_4_706)">
<mask id="mask113_4_706" style="mask-type:luminance" maskUnits="userSpaceOnUse" x="-24" y="-26" width="168" height="167">
<path d="M-23.3229 45.9375L75.776 -25.2188L143.432 69.0052L44.3333 140.161L-23.3229 45.9375Z" fill="white"/>
</mask>
<g mask="url(#mask113_4_706)">
<path d="M58.4896 76.0625C57.8333 82.6406 49.9375 84.6198 45.8802 79.2188C42.5521 74.7917 44.7344 68.1875 51.1823 67.8906C56.75 68.2135 58.8073 72.8646 58.4896 76.0625Z" fill="#000FE6"/>
</g>
</g>
</g>
<mask id="mask114_4_706" style="mask-type:luminance" maskUnits="userSpaceOnUse" x="7" y="87" width="10" height="14">
<path d="M7 87H16.3333V100.333H7V87Z" fill="white"/>
</mask>
<g mask="url(#mask114_4_706)">
<mask id="mask115_4_706" style="mask-type:luminance" maskUnits="userSpaceOnUse" x="-24" y="-26" width="168" height="167">
<path d="M-23.3229 45.9375L75.776 -25.2188L143.432 69.0052L44.3333 140.161L-23.3229 45.9375Z" fill="white"/>
</mask>
<g mask="url(#mask115_4_706)">
<mask id="mask116_4_706" style="mask-type:luminance" maskUnits="userSpaceOnUse" x="-24" y="-26" width="168" height="167">
<path d="M-23.3229 45.9375L75.776 -25.2188L143.432 69.0052L44.3333 140.161L-23.3229 45.9375Z" fill="white"/>
</mask>
<g mask="url(#mask116_4_706)">
<path d="M13.2917 93.7135C15.4635 97.0885 16.4687 98.9531 16.2865 99.2552C15.0156 99.3594 7.51041 88.1406 8.16666 87.1354C8.97916 87.0729 12.5781 92.6042 13.2917 93.7135Z" fill="#000FE6"/>
</g>
</g>
</g>
<mask id="mask117_4_706" style="mask-type:luminance" maskUnits="userSpaceOnUse" x="12" y="85" width="10" height="14">
<path d="M12.3333 85.6667H21.6666V99H12.3333V85.6667Z" fill="white"/>
</mask>
<g mask="url(#mask117_4_706)">
<mask id="mask118_4_706" style="mask-type:luminance" maskUnits="userSpaceOnUse" x="-24" y="-26" width="168" height="167">
<path d="M-23.3229 45.9375L75.776 -25.2188L143.432 69.0052L44.3333 140.161L-23.3229 45.9375Z" fill="white"/>
</mask>
<g mask="url(#mask118_4_706)">
<mask id="mask119_4_706" style="mask-type:luminance" maskUnits="userSpaceOnUse" x="-24" y="-26" width="168" height="167">
<path d="M-23.3229 45.9375L75.776 -25.2188L143.432 69.0052L44.3333 140.161L-23.3229 45.9375Z" fill="white"/>
</mask>
<g mask="url(#mask119_4_706)">
<path d="M20.276 92.8073C21.8437 95.9271 22.2552 98.8333 20.2187 98.2969C16.3906 97.2917 10.7864 87.9636 13 86.2656C13.1302 86.1667 13.3541 86.1042 13.5208 86.0677C15.7031 86.0781 18.6302 89.5469 20.276 92.8073Z" fill="#000FE6"/>
</g>
</g>
</g>
<mask id="mask120_4_706" style="mask-type:luminance" maskUnits="userSpaceOnUse" x="21" y="84" width="13" height="15">
<path d="M21.6667 84.3333H33.6667V99H21.6667V84.3333Z" fill="white"/>
</mask>
<g mask="url(#mask120_4_706)">
<mask id="mask121_4_706" style="mask-type:luminance" maskUnits="userSpaceOnUse" x="-24" y="-26" width="168" height="167">
<path d="M-23.3229 45.9375L75.776 -25.2188L143.432 69.0052L44.3333 140.161L-23.3229 45.9375Z" fill="white"/>
</mask>
<g mask="url(#mask121_4_706)">
<mask id="mask122_4_706" style="mask-type:luminance" maskUnits="userSpaceOnUse" x="-24" y="-26" width="168" height="167">
<path d="M-23.3229 45.9375L75.776 -25.2188L143.432 69.0052L44.3333 140.161L-23.3229 45.9375Z" fill="white"/>
</mask>
<g mask="url(#mask122_4_706)">
<path d="M33.0208 92.2083C34.2083 96.2813 32 99.2761 27.8229 96.8229C22.4375 93.6615 20.4375 86.1511 24.7656 85.3438C24.9166 85.3177 25.1198 85.3073 25.2708 85.2865C29.2552 85.3906 32.2031 89.3958 33.0208 92.2083Z" fill="#000FE6"/>
</g>
</g>
</g>
<mask id="mask123_4_706" style="mask-type:luminance" maskUnits="userSpaceOnUse" x="19" y="100" width="12" height="11">
<path d="M19 100.333H31V111H19V100.333Z" fill="white"/>
</mask>
<g mask="url(#mask123_4_706)">
<mask id="mask124_4_706" style="mask-type:luminance" maskUnits="userSpaceOnUse" x="-24" y="-26" width="168" height="167">
<path d="M-23.3229 45.9375L75.776 -25.2188L143.432 69.0052L44.3333 140.161L-23.3229 45.9375Z" fill="white"/>
</mask>
<g mask="url(#mask124_4_706)">
<mask id="mask125_4_706" style="mask-type:luminance" maskUnits="userSpaceOnUse" x="-24" y="-26" width="168" height="167">
<path d="M-23.3229 45.9375L75.776 -25.2188L143.432 69.0052L44.3333 140.161L-23.3229 45.9375Z" fill="white"/>
</mask>
<g mask="url(#mask125_4_706)">
<path d="M26.4843 105.839C29.2812 108.521 30.4583 109.943 29.9895 110.057C28.0729 110.531 17.9687 101.651 19.1822 100.557C19.2135 100.531 19.2708 100.516 19.3072 100.5C20.7447 100.479 24.8072 104.224 26.4843 105.839Z" fill="#000FE6"/>
</g>
</g>
</g>
<mask id="mask126_4_706" style="mask-type:luminance" maskUnits="userSpaceOnUse" x="24" y="99" width="13" height="11">
<path d="M24.3333 99H36.3333V109.667H24.3333V99Z" fill="white"/>
</mask>
<g mask="url(#mask126_4_706)">
<mask id="mask127_4_706" style="mask-type:luminance" maskUnits="userSpaceOnUse" x="-24" y="-26" width="168" height="167">
<path d="M-23.3229 45.9375L75.776 -25.2188L143.432 69.0052L44.3333 140.161L-23.3229 45.9375Z" fill="white"/>
</mask>
<g mask="url(#mask127_4_706)">
<mask id="mask128_4_706" style="mask-type:luminance" maskUnits="userSpaceOnUse" x="-24" y="-26" width="168" height="167">
<path d="M-23.3229 45.9375L75.776 -25.2188L143.432 69.0052L44.3333 140.161L-23.3229 45.9375Z" fill="white"/>
</mask>
<g mask="url(#mask128_4_706)">
<path d="M34.0625 105.25C35.3125 106.906 36.8958 109.656 34.9114 109.484C31.3646 109.182 23.5885 102.104 25.5468 100.047C25.7552 99.8281 26.0677 99.776 26.3177 99.7344C28.8021 99.776 32.0729 102.625 34.0625 105.25Z" fill="#000FE6"/>
</g>
</g>
</g>
<mask id="mask129_4_706" style="mask-type:luminance" maskUnits="userSpaceOnUse" x="35" y="99" width="12" height="11">
<path d="M35 99H47V109.667H35V99Z" fill="white"/>
</mask>
<g mask="url(#mask129_4_706)">
<mask id="mask130_4_706" style="mask-type:luminance" maskUnits="userSpaceOnUse" x="-24" y="-26" width="168" height="167">
<path d="M-23.3229 45.9375L75.776 -25.2188L143.432 69.0052L44.3333 140.161L-23.3229 45.9375Z" fill="white"/>
</mask>
<g mask="url(#mask130_4_706)">
<mask id="mask131_4_706" style="mask-type:luminance" maskUnits="userSpaceOnUse" x="-24" y="-26" width="168" height="167">
<path d="M-23.3229 45.9375L75.776 -25.2188L143.432 69.0052L44.3333 140.161L-23.3229 45.9375Z" fill="white"/>
</mask>
<g mask="url(#mask131_4_706)">
<path d="M45.7083 104.943C46.8802 108.12 45.4479 110.339 41.5208 108.443C36.4583 105.995 33.9375 100.411 37.4375 99.3906C37.7083 99.3125 38.0833 99.2761 38.3646 99.2552C42.2708 99.3906 44.8958 102.729 45.7083 104.943Z" fill="#000FE6"/>
</g>
</g>
</g>
<mask id="mask132_4_706" style="mask-type:luminance" maskUnits="userSpaceOnUse" x="48" y="99" width="13" height="11">
<path d="M48.3333 99H60.3333V109.667H48.3333V99Z" fill="white"/>
</mask>
<g mask="url(#mask132_4_706)">
<mask id="mask133_4_706" style="mask-type:luminance" maskUnits="userSpaceOnUse" x="-24" y="-26" width="168" height="167">
<path d="M-23.3229 45.9375L75.776 -25.2188L143.432 69.0052L44.3333 140.161L-23.3229 45.9375Z" fill="white"/>
</mask>
<g mask="url(#mask133_4_706)">
<mask id="mask134_4_706" style="mask-type:luminance" maskUnits="userSpaceOnUse" x="-24" y="-26" width="168" height="167">
<path d="M-23.3229 45.9375L75.776 -25.2188L143.432 69.0052L44.3333 140.161L-23.3229 45.9375Z" fill="white"/>
</mask>
<g mask="url(#mask134_4_706)">
<path d="M59.0729 104.969C58.8698 109.083 54.4062 110.755 50.9635 106.703C48.3177 103.583 49.0573 99.3594 53.4687 99.1562C57.1458 99.3698 59.2031 102.281 59.0729 104.969Z" fill="#000FE6"/>
</g>
</g>
</g>
<mask id="mask135_4_706" style="mask-type:luminance" maskUnits="userSpaceOnUse" x="33" y="111" width="14" height="7">
<path d="M33.6667 111H47V117.667H33.6667V111Z" fill="white"/>
</mask>
<g mask="url(#mask135_4_706)">
<mask id="mask136_4_706" style="mask-type:luminance" maskUnits="userSpaceOnUse" x="-24" y="-26" width="168" height="167">
<path d="M-23.3229 45.9375L75.776 -25.2188L143.432 69.0052L44.3333 140.161L-23.3229 45.9375Z" fill="white"/>
</mask>
<g mask="url(#mask136_4_706)">
<mask id="mask137_4_706" style="mask-type:luminance" maskUnits="userSpaceOnUse" x="-24" y="-26" width="168" height="167">
<path d="M-23.3229 45.9375L75.776 -25.2188L143.432 69.0052L44.3333 140.161L-23.3229 45.9375Z" fill="white"/>
</mask>
<g mask="url(#mask137_4_706)">
<path d="M42.1458 115.026C46.3021 117.365 46.3021 117.365 46.4323 117.505C46.4114 117.526 46.3906 117.552 46.375 117.568C43.3073 117.526 32.776 112.182 34.125 111.354C34.1614 111.333 34.2239 111.328 34.2604 111.318C35.5781 111.328 38.6198 113.042 42.1458 115.026Z" fill="#000FE6"/>
</g>
</g>
</g>
<mask id="mask138_4_706" style="mask-type:luminance" maskUnits="userSpaceOnUse" x="39" y="109" width="12" height="9">
<path d="M39 109.667H51V117.667H39V109.667Z" fill="white"/>
</mask>
<g mask="url(#mask138_4_706)">
<mask id="mask139_4_706" style="mask-type:luminance" maskUnits="userSpaceOnUse" x="-24" y="-26" width="168" height="167">
<path d="M-23.3229 45.9375L75.776 -25.2188L143.432 69.0052L44.3333 140.161L-23.3229 45.9375Z" fill="white"/>
</mask>
<g mask="url(#mask139_4_706)">
<mask id="mask140_4_706" style="mask-type:luminance" maskUnits="userSpaceOnUse" x="-24" y="-26" width="168" height="167">
<path d="M-23.3229 45.9375L75.776 -25.2188L143.432 69.0052L44.3333 140.161L-23.3229 45.9375Z" fill="white"/>
</mask>
<g mask="url(#mask140_4_706)">
<path d="M47.9896 114.75C50.8906 117.281 50.1771 117.323 49.9427 117.333C47.5104 117.464 38.7812 112.563 40.1927 111.094C40.3437 110.938 40.6198 110.906 40.8229 110.88C43.4427 110.958 46.9687 113.865 47.9896 114.75Z" fill="#000FE6"/>
</g>
</g>
</g>
<mask id="mask141_4_706" style="mask-type:luminance" maskUnits="userSpaceOnUse" x="48" y="109" width="9" height="9">
<path d="M48.3333 109.667H56.3333V117.667H48.3333V109.667Z" fill="white"/>
</mask>
<g mask="url(#mask141_4_706)">
<mask id="mask142_4_706" style="mask-type:luminance" maskUnits="userSpaceOnUse" x="-24" y="-26" width="168" height="167">
<path d="M-23.3229 45.9375L75.776 -25.2188L143.432 69.0052L44.3333 140.161L-23.3229 45.9375Z" fill="white"/>
</mask>
<g mask="url(#mask142_4_706)">
<mask id="mask143_4_706" style="mask-type:luminance" maskUnits="userSpaceOnUse" x="-24" y="-26" width="168" height="167">
<path d="M-23.3229 45.9375L75.776 -25.2188L143.432 69.0052L44.3333 140.161L-23.3229 45.9375Z" fill="white"/>
</mask>
<g mask="url(#mask143_4_706)">
<path d="M55.6823 114.667C56.026 115.526 56.8854 118.214 53.5781 116.797C49.7292 115.151 47.4323 111.823 49.4844 110.865C49.7969 110.719 50.1614 110.693 50.4323 110.677C52.9948 110.802 54.9479 112.833 55.6823 114.667Z" fill="#000FE6"/>
</g>
</g>
</g>
<mask id="mask144_4_706" style="mask-type:luminance" maskUnits="userSpaceOnUse" x="57" y="109" width="8" height="9">
<path d="M57.6667 109.667H64.3333V117.667H57.6667V109.667Z" fill="white"/>
</mask>
<g mask="url(#mask144_4_706)">
<mask id="mask145_4_706" style="mask-type:luminance" maskUnits="userSpaceOnUse" x="-24" y="-26" width="168" height="167">
<path d="M-23.3229 45.9375L75.776 -25.2188L143.432 69.0052L44.3333 140.161L-23.3229 45.9375Z" fill="white"/>
</mask>
<g mask="url(#mask145_4_706)">
<mask id="mask146_4_706" style="mask-type:luminance" maskUnits="userSpaceOnUse" x="-24" y="-26" width="168" height="167">
<path d="M-23.3229 45.9375L75.776 -25.2188L143.432 69.0052L44.3333 140.161L-23.3229 45.9375Z" fill="white"/>
</mask>
<g mask="url(#mask146_4_706)">
<path d="M63.7917 114.781C62.7083 117.672 59.7656 118.323 58.3594 114.995C57.5208 113.021 58.4219 110.839 61.1042 110.74C63.6615 110.927 64.4792 112.943 63.7917 114.781Z" fill="#000FE6"/>
</g>
</g>
</g>
<mask id="mask147_4_706" style="mask-type:luminance" maskUnits="userSpaceOnUse" x="65" y="111" width="9" height="7">
<path d="M65.6667 111H73.6667V117.667H65.6667V111Z" fill="white"/>
</mask>
<g mask="url(#mask147_4_706)">
<mask id="mask148_4_706" style="mask-type:luminance" maskUnits="userSpaceOnUse" x="-24" y="-26" width="168" height="167">
<path d="M-23.3229 45.9375L75.776 -25.2188L143.432 69.0052L44.3333 140.161L-23.3229 45.9375Z" fill="white"/>
</mask>
<g mask="url(#mask148_4_706)">
<mask id="mask149_4_706" style="mask-type:luminance" maskUnits="userSpaceOnUse" x="-24" y="-26" width="168" height="167">
<path d="M-23.3229 45.9375L75.776 -25.2188L143.432 69.0052L44.3333 140.161L-23.3229 45.9375Z" fill="white"/>
</mask>
<g mask="url(#mask149_4_706)">
<path d="M71.4948 115.068C70.6094 115.849 65.625 119.193 65.9167 116.219C66.125 114.146 68.4427 111.099 71.6042 111.047C73.9635 111.292 73.4375 113.359 71.4948 115.068Z" fill="#000FE6"/>
</g>
</g>
</g>
<mask id="mask150_4_706" style="mask-type:luminance" maskUnits="userSpaceOnUse" x="71" y="111" width="11" height="8">
<path d="M71 111H81.6667V119H71V111Z" fill="white"/>
</mask>
<g mask="url(#mask150_4_706)">
<mask id="mask151_4_706" style="mask-type:luminance" maskUnits="userSpaceOnUse" x="-24" y="-26" width="168" height="167">
<path d="M-23.3229 45.9375L75.776 -25.2188L143.432 69.0052L44.3333 140.161L-23.3229 45.9375Z" fill="white"/>
</mask>
<g mask="url(#mask151_4_706)">
<mask id="mask152_4_706" style="mask-type:luminance" maskUnits="userSpaceOnUse" x="-24" y="-26" width="168" height="167">
<path d="M-23.3229 45.9375L75.776 -25.2188L143.432 69.0052L44.3333 140.161L-23.3229 45.9375Z" fill="white"/>
</mask>
<g mask="url(#mask152_4_706)">
<path d="M77.9687 115.505C75.4219 116.885 71.3021 118.234 71.4531 117.479C71.5989 116.781 77.3854 111.547 80.8541 111.563C82.4687 111.813 81.1979 113.307 79.9479 114.255C79.3958 114.672 78.7291 115.094 77.9687 115.505Z" fill="#000FE6"/>
</g>
</g>
</g>
<path d="M78.3516 57.3944H84.0183L87.9975 74.8944L91.935 57.3944H97.435L101.393 74.8944L105.352 57.3944H111.039L104.227 83.9986H98.7266L94.685 66.3319L90.6641 83.9986H85.1641L78.3516 57.3944Z" fill="#000FE6"/>
<path d="M124.439 57.3944H137.751C138.428 57.3944 139.064 57.5715 139.647 57.9153C140.23 58.2642 140.689 58.7278 141.022 59.3111C141.366 59.884 141.543 60.509 141.543 61.1861V80.2069C141.543 80.8892 141.366 81.5142 141.022 82.0819C140.689 82.6549 140.23 83.1184 139.647 83.4778C139.064 83.8267 138.428 83.9986 137.751 83.9986H124.439C123.756 83.9986 123.131 83.8267 122.564 83.4778C121.991 83.1184 121.527 82.6549 121.168 82.0819C120.819 81.5142 120.647 80.8892 120.647 80.2069V61.1861C120.647 60.509 120.819 59.884 121.168 59.3111C121.527 58.7278 121.991 58.2642 122.564 57.9153C123.131 57.5715 123.756 57.3944 124.439 57.3944ZM127.209 62.3319C126.918 62.3319 126.668 62.4257 126.459 62.6028C126.251 62.7851 126.147 63.0194 126.147 63.3111V78.0819C126.147 78.3736 126.251 78.6184 126.459 78.8111C126.668 78.9934 126.918 79.0819 127.209 79.0819H135.001C135.303 79.0819 135.553 78.9934 135.751 78.8111C135.944 78.6184 136.043 78.3736 136.043 78.0819V63.3111C136.043 63.0194 135.944 62.7851 135.751 62.6028C135.553 62.4257 135.303 62.3319 135.001 62.3319H127.209Z" fill="#000FE6"/>
<path d="M152.891 57.3944H169.995C171.063 57.3944 171.959 57.7642 172.683 58.4986C173.417 59.2226 173.787 60.1184 173.787 61.1861V71.1861C173.787 72.2278 173.417 73.1236 172.683 73.8736C171.959 74.6132 171.063 74.9778 169.995 74.9778H169.704L175.829 83.9986H169.141L163.016 74.9778H158.391V83.9986H152.891V57.3944ZM158.391 70.0403H167.245C167.547 70.0403 167.797 69.9517 167.995 69.7694C168.188 69.5924 168.287 69.3528 168.287 69.0611V63.3111C168.287 63.0194 168.188 62.7851 167.995 62.6028C167.797 62.4257 167.547 62.3319 167.245 62.3319H158.391V70.0403Z" fill="#000FE6"/>
<path d="M185.272 57.3944H190.772V68.2278H196.73L202.189 57.3944H208.251L201.689 70.7069L208.251 83.9986H202.189L196.73 73.1236L190.772 73.1653V83.9986H185.272V57.3944Z" fill="#000FE6"/>
<path d="M93.65 107.429V93.7202H95.2542V105.991H101.296V107.429H93.65Z" fill="black"/>
<path d="M121.011 100.554C121.011 102.752 120.453 104.481 119.344 105.741C118.229 106.991 116.688 107.616 114.719 107.616C112.688 107.616 111.125 107.002 110.032 105.762C108.933 104.528 108.386 102.783 108.386 100.533C108.386 98.2984 108.933 96.5692 110.032 95.3453C111.141 94.1109 112.709 93.4911 114.74 93.4911C116.698 93.4911 118.229 94.1265 119.344 95.3869C120.453 96.6369 121.011 98.3609 121.011 100.554ZM110.073 100.554C110.073 102.418 110.469 103.824 111.261 104.783C112.052 105.741 113.203 106.22 114.719 106.22C116.229 106.22 117.375 105.741 118.157 104.783C118.933 103.824 119.323 102.418 119.323 100.554C119.323 98.7098 118.933 97.314 118.157 96.3661C117.391 95.4078 116.25 94.9286 114.74 94.9286C113.209 94.9286 112.052 95.4078 111.261 96.3661C110.469 97.3244 110.073 98.7203 110.073 100.554Z" fill="black"/>
<path d="M135.568 100.241H140.235V106.908C139.495 107.147 138.756 107.319 138.006 107.429C137.256 107.554 136.386 107.616 135.402 107.616C133.329 107.616 131.714 107.001 130.547 105.762C129.391 104.528 128.818 102.798 128.818 100.574C128.818 99.1473 129.099 97.8973 129.672 96.8244C130.256 95.7567 131.079 94.939 132.152 94.3661C133.235 93.7984 134.495 93.5119 135.943 93.5119C137.402 93.5119 138.761 93.7827 140.027 94.3244L139.402 95.7411C138.162 95.215 136.974 94.9494 135.839 94.9494C134.157 94.9494 132.844 95.4494 131.902 96.4494C130.969 97.439 130.506 98.814 130.506 100.574C130.506 102.423 130.954 103.824 131.86 104.783C132.761 105.741 134.089 106.22 135.839 106.22C136.797 106.22 137.724 106.111 138.631 105.887V101.679H135.568V100.241Z" fill="black"/>
<path d="M155.026 100.241H159.692V106.908C158.953 107.147 158.213 107.319 157.463 107.429C156.713 107.554 155.843 107.616 154.859 107.616C152.786 107.616 151.171 107.001 150.005 105.762C148.848 104.528 148.276 102.798 148.276 100.574C148.276 99.1473 148.557 97.8973 149.13 96.8244C149.713 95.7567 150.536 94.939 151.609 94.3661C152.692 93.7984 153.953 93.5119 155.401 93.5119C156.859 93.5119 158.218 93.7827 159.484 94.3244L158.859 95.7411C157.619 95.215 156.432 94.9494 155.296 94.9494C153.614 94.9494 152.302 95.4494 151.359 96.4494C150.427 97.439 149.963 98.814 149.963 100.574C149.963 102.423 150.411 103.824 151.317 104.783C152.218 105.741 153.546 106.22 155.296 106.22C156.255 106.22 157.182 106.111 158.088 105.887V101.679H155.026V100.241Z" fill="black"/>
<path d="M176.087 107.429H168.441V93.7202H176.087V95.1369H170.045V99.5536H175.733V100.949H170.045V106.012H176.087V107.429Z" fill="black"/>
<path d="M186.202 101.72V107.429H184.598V93.7202H188.369C190.046 93.7202 191.291 94.0484 192.098 94.6994C192.9 95.34 193.306 96.3036 193.306 97.5952C193.306 99.4025 192.379 100.626 190.535 101.262L194.265 107.429H192.39L189.056 101.72H186.202ZM186.202 100.366H188.39C189.515 100.366 190.337 100.147 190.869 99.6994C191.395 99.2411 191.66 98.5692 191.66 97.6786C191.66 96.7775 191.39 96.1265 190.848 95.7202C190.317 95.3192 189.462 95.1161 188.285 95.1161H186.202V100.366Z" fill="black"/>
</svg>
